<!DOCTYPE svg PUBLIC "-//W3C//DTD SVG 1.1//EN" "http://www.w3.org/Graphics/SVG/1.1/DTD/svg11.dtd">
<!-- Uploaded to: SVG Repo, www.svgrepo.com, Transformed by: SVG Repo Mixer Tools -->
<svg width="800px" height="800px" viewBox="-51.2 -51.2 614.40 614.40" id="Layer_1" version="1.1" xml:space="preserve" xmlns="http://www.w3.org/2000/svg" xmlns:xlink="http://www.w3.org/1999/xlink" fill="#000000" stroke="#000000" stroke-width="0.00512">
<g id="SVGRepo_bgCarrier" stroke-width="0">
<path transform="translate(-51.2, -51.2), scale(19.2)" d="M16,27.129016239415197C18.41387635395349,27.826280114744648,20.780493902378073,30.50915368211581,23.057355984039432,29.446668376284272C25.28664764960346,28.40638154637396,24.359562250444878,24.752818271511092,25.61973118340984,22.640021007449057C26.769629004474517,20.712104117306293,29.274738287790427,19.810326001294687,30.059362229868125,17.707115644790733C30.892981626769473,15.47257135558286,30.83850150703781,12.920824448542332,30.090412879356546,10.656211262045431C29.33097072975993,8.357228704739658,27.78553018746425,6.331813605948085,25.830055205097736,4.9041614176617365C23.942756183318544,3.5262831002756565,21.59994070824168,2.6577080778548434,19.265120108733385,2.752886979104611C17.085750583488743,2.8417289213393575,15.408832642372182,4.585249572892335,13.390113765719168,5.411275308151163C11.681821112774923,6.11027986544994,9.682558611156704,6.087661727127418,8.255221278342749,7.257951989234767C6.811121434999534,8.441986026124626,6.08860343822467,10.244422645027676,5.385415670501457,11.974419154094106C4.670350202238696,13.733637417878608,4.451691321247818,15.574104064748123,4.115302000577625,17.443063601087488C3.6617789016643343,19.96281160906663,1.4652633609339236,22.92813875073383,3.0522840406454623,24.937163038075994C4.689573681731835,27.00982327269508,8.196504016909472,25.46541256207556,10.800784247058225,25.906277960849764C12.582043387137032,26.207818291271956,14.264356871884114,26.627664439967422,16,27.129016239415197" fill="#dedede" strokewidth="0"/>
</g>
<g id="SVGRepo_tracerCarrier" stroke-linecap="round" stroke-linejoin="round"/>
<g id="SVGRepo_iconCarrier"> <style type="text/css"> .st0{fill:#200693;} .st1{fill:#292929;} </style> <g> <path class="st1" d="M458.2,355h-60.4v-57c0-6.5-5.3-11.7-11.8-11.7c-6.5,0-11.8,5.3-11.8,11.7v57H314c-6.5,0-11.8,5.3-11.8,11.7 s5.3,11.7,11.8,11.7h60.4v57c0,6.5,5.3,11.7,11.8,11.7c6.5,0,11.8-5.3,11.8-11.7v-57h60.4c6.5,0,11.8-5.3,11.8-11.7 S464.7,355,458.2,355z"/> <path class="st0" d="M372.1,58.9H70c-15.4,0-28,12.8-28,28.4v50.4c0,6.5,5.3,11.7,11.8,11.7c6.5,0,11.8-5.3,11.8-11.7V87.3 c0-2.7,2-4.9,4.5-4.9h139.5c-0.1,0.7-0.2,1.4-0.2,2.1v357c0,6.5,5.3,11.7,11.8,11.7s11.8-5.3,11.8-11.7v-357c0-0.7-0.1-1.4-0.2-2.1 h139.5c2.5,0,4.5,2.2,4.5,4.9v50.1c0,6.5,5.3,11.7,11.8,11.7c6.5,0,11.8-5.3,11.8-11.7V87.3C400.1,71.6,387.5,58.9,372.1,58.9z"/> </g> </g>
</svg>